<svg xmlns="http://www.w3.org/2000/svg" viewBox="0 0 208 208"><defs><style>.cls-1{opacity:.1}.cls-2{fill:#091244}.cls-3{fill:#10c8d2}.cls-3,.cls-4,.cls-5{stroke:#091244}.cls-3,.cls-4,.cls-6{stroke-linecap:round}.cls-3,.cls-4,.cls-5,.cls-6{stroke-linejoin:round;stroke-width:3px}.cls-4,.cls-5{fill:#fff}.cls-6{fill:none;stroke:#10c8d2}</style></defs><title>phone</title><g id="Layer_2" data-name="Layer 2"><g id="Layer_1-2" data-name="Layer 1"><g id="phone"><g class="cls-1"><circle cx="104" cy="104" r="104" class="cls-2"/></g><path d="M106.51 85.92a9.18 9.18 0 0 1 .72-12.44l4.59-4.48c-2.3-5.58-2.42-5.87-4.73-11.45l-6.38.1a9.19 9.19 0 0 1-9.29-8.32l-.6-6.33-11.9-3.44L75 44.63a9.18 9.18 0 0 1-12.28 2.07l-5.35-3.49-10.11 7.16 1.52 6.2a9.18 9.18 0 0 1-6 10.9l-6.07 2c-.34 6-.36 6.33-.71 12.37l5.8 2.68a9.18 9.18 0 0 1 4.76 11.52l-2.22 6 9.23 8.27 5.72-2.87a9.19 9.19 0 0 1 12 3.47l3.3 5.47 12.22-2.07 1.32-6.25a9.2 9.2 0 0 1 10.18-7.2l6.33.83 6-10.84zm-38.11 7a16.62 16.62 0 1 1 22-8.14 16.62 16.62 0 0 1-22 8.12z" class="cls-3"/><path d="M136.11 98.24v61.85c0 5.87-5.1 10.63-11.41 10.63H83.85c-6.31 0-11.42-4.76-11.42-10.63V63.33a10.87 10.87 0 019.44-10.47 11.67 11.67 0 012-.16h41.54c6 .33 10.7 5 10.7 10.6v16.38M136.11 83.49v10.94" class="cls-4"/><path d="M157.6 156.05a4.58 4.58 0 012.5-5.69l2.92-1.28c-.11-3-.11-3.16-.22-6.18l-3-1.06a4.58 4.58 0 01-2.9-5.5l.83-3.08-5-3.69-2.71 1.69a4.58 4.58 0 01-6.11-1.17l-1.89-2.56-6 1.59-.37 3.16a4.58 4.58 0 01-4.72 4.05l-3.19-.12-2.48 5.66 2.24 2.26a4.59 4.59 0 01.22 6.22l-2.08 2.42c1.41 2.66 1.48 2.8 2.88 5.47l3.17-.35a4.6 4.6 0 015 3.71l.59 3.13 6.07 1.16 1.71-2.69a4.58 4.58 0 016-1.6l2.82 1.49 4.69-4zm-19-3.36a8.29 8.29 0 1111.73 0 8.29 8.29 0 01-11.77 0zM125.41 52.7l-.7 1.87a10.58 10.58 0 01-9.9 6.84H92.42a10.58 10.58 0 01-9.89-6.84l-.66-1.72c.64-.12 43.3-.16 43.54-.15zM104.3 107.33l-15.96-9.22 15.86-9.15 15.95 9.21-15.85 9.16zM104.3 125.66l-15.96-9.21V98.14l15.96 9.22v18.3z" class="cls-3"/><path d="M120.15 116.45l-15.95 9.21v-18.3l15.95-9.22v18.31z" class="cls-5"/><path d="M99.36 162.87h18.43M89.5 162.87h6.06" class="cls-4"/><path d="M118.71 128.67v5.71M115.85 131.53h5.71M86.65 80.75v5.71M83.8 83.61h5.71" class="cls-6"/><circle cx="122.63" cy="77.16" r="4.41" class="cls-4"/><circle cx="87.28" cy="143.35" r="4.41" class="cls-4"/></g></g></g></svg>