<svg xmlns="http://www.w3.org/2000/svg" viewBox="0 0 208 208"><defs><style>.cls-1{opacity:.1}.cls-2{fill:#091244}.cls-3{fill:#10c8d2}.cls-3,.cls-4,.cls-5,.cls-6{stroke:#091244;stroke-linejoin:round;stroke-width:3px}.cls-3,.cls-4,.cls-5{stroke-linecap:round}.cls-4,.cls-6{fill:#fff}.cls-5{fill:none}</style></defs><title>laptop</title><g id="Layer_2" data-name="Layer 2"><g id="Layer_1-2" data-name="Layer 1"><g id="laptop"><g class="cls-1"><circle cx="104" cy="104" r="104" class="cls-2"/></g><path d="M37.37 73.15v-7.53c0-6.63 4.91-12 11-12h111.29c6.06 0 11 5.37 11 12v71.6c0 6.63-4.91 12-11 12H48.34c-6.06 0-11-5.37-11-12V92.4M37.37 88.4V77.15" class="cls-3"/><path d="M152.06 156.22h12.75a12 12 0 0 0 12-12v-3.12a3.71 3.71 0 0 0-3.72-3.72h-50.46a4.41 4.41 0 0 0-4.16 3l-.13.36H89.66l-.13-.36a4.41 4.41 0 0 0-4.16-3H34.91a3.71 3.71 0 0 0-3.72 3.72v3.12a12 12 0 0 0 12 12h104.87" class="cls-4"/><path d="M93.63 101.41l23.57-21 21.72 14 14.66-27" class="cls-5"/><circle cx="93.63" cy="101.41" r="4.41" class="cls-6"/><circle cx="117.2" cy="80.41" r="4.41" class="cls-6"/><circle cx="138.92" cy="94.41" r="4.41" class="cls-6"/><circle cx="153.58" cy="67.41" r="4.41" class="cls-6"/><rect width="68.78" height="8.83" x="89.22" y="116.56" class="cls-6" rx="4.41"/><rect width="26.99" height="8.83" x="50.59" y="116.56" class="cls-6" rx="4.41"/><rect width="26.99" height="8.83" x="50.59" y="99" class="cls-6" rx="4.41"/><rect width="26.99" height="8.83" x="50.59" y="81.58" class="cls-6" rx="4.41"/><rect width="26.99" height="8.83" x="50.59" y="65" class="cls-6" rx="4.41"/></g></g></g></svg>