<svg xmlns="http://www.w3.org/2000/svg" viewBox="0 0 208 208"><defs><style>.cls-1{opacity:.1}.cls-2{fill:#091244}.cls-3,.cls-5,.cls-7{fill:#fff}.cls-4{fill:#10c8d2}.cls-4,.cls-5,.cls-6,.cls-7{stroke:#091244;stroke-width:3px}.cls-4,.cls-7{stroke-linecap:round}.cls-4,.cls-5,.cls-6{stroke-linejoin:round}.cls-6{fill:none}.cls-7{stroke-miterlimit:10}</style></defs><title>imac</title><g id="Layer_2" data-name="Layer 2"><g id="Layer_1-2" data-name="Layer 1"><g id="imac"><g class="cls-1"><circle cx="104" cy="104" r="104" class="cls-2"/></g><path d="M87.28 171.56l5.95-19.07h21.54l5.95 19.07H87.28z" class="cls-3"/><path d="M113.66 154l5 16.07H89.32l5-16.07h19.32m2.21-3H92.13l-6.88 22.07h37.5L115.87 151z" class="cls-2"/><path d="M31.19 95.23V63.7a12 12 0 0112-12h121.62a12 12 0 0112 12v78.61a12 12 0 01-12 12H43.19a12 12 0 01-12-12v-27.83M31.19 110.48V99.23" class="cls-4"/><path d="M31.19 131.69h145.62M164.81 154.3H43.19a12 12 0 01-12-12v-10.61h145.62v10.61a12 12 0 01-12 12z" class="cls-5"/><circle cx="104" cy="143.17" r="4.41" class="cls-6"/><path d="M115.66 184.93H80.4c-3.82 0-6.91-2.81-6.91-6.26v-1.29c0-3.46 3.09-6.26 6.91-6.26h47.2c3.82 0 6.91 2.8 6.91 6.26v1.29c0 3.45-3.09 6.26-6.91 6.26h-8.17" class="cls-7"/><path d="M159.85 76H48.15a3.71 3.71 0 0 1-3.72-3.72v-1.41a3.72 3.72 0 0 1 3.72-3.72h111.7a3.72 3.72 0 0 1 3.72 3.72v1.38a3.71 3.71 0 0 1-3.72 3.75z" class="cls-5"/><rect width="78.33" height="8.83" x="44.98" y="88.11" class="cls-5" rx="4.41"/><rect width="27.58" height="29.79" x="135.99" y="88.11" class="cls-5" rx="4.41"/><rect width="77.78" height="8.83" x="44.98" y="109.07" class="cls-5" rx="4.41"/></g></g></g></svg>