<svg height="33" viewBox="0 0 34 33" width="34" xmlns="http://www.w3.org/2000/svg"><g fill="none"><path d="M31.657.058h-9.12a2.27 2.27 0 00-2.27 2.27v10.227c0 .997-1.15 1.554-1.932.936L1.673.316A1.188 1.188 0 00.933.06C.054.06-.332 1.17.359 1.716l31.638 25.03c.781.618 1.932.06 1.932-.936V2.328a2.272 2.272 0 00-2.27-2.27z" fill="#0a1244"/><path d="M10.56 32.334a2.982 2.982 0 002.983-2.982v-9.608c0-.998 1.152-1.554 1.933-.935l16.772 13.267c.21.167.47.258.74.258.884 0 1.273-1.117.578-1.665L1.928 5.639C1.15 5.025.006 5.58.006 6.57v22.782a2.982 2.982 0 002.982 2.982h4.06z" fill="#10c8d2"/></g></svg>